<svg
  xmlns="http://www.w3.org/2000/svg"
  fill="none"
  viewBox="0 0 24 24"
  stroke-width="1.5"
  stroke="currentColor"
  class="h-6 w-6"
>
  <symbol
    id="minus"
    fill="none"
    viewBox="0 0 24 24"
    stroke-width="1.5"
    stroke="currentColor"
  >
    <path stroke-linecap="round" stroke-linejoin="round" d="M18 12H6" />
  </symbol>

  <symbol
    id="plus"
    fill="none"
    viewBox="0 0 24 24"
    stroke-width="1.5"
    stroke="currentColor"
  >
    <path stroke-linecap="round" stroke-linejoin="round" d="M12 6v12m6-6H6" />
  </symbol>

  <symbol
    id="bag"
    fill="none"
    viewBox="0 0 24 24"
    stroke-width="1.5"
    stroke="currentColor"
  >
    <path
      stroke-linecap="round"
      stroke-linejoin="round"
      d="M15.75 10.5V6a3.75 3.75 0 10-7.5 0v4.5m11.356-1.993l1.263 12c.07.665-.45 1.243-1.119 1.243H4.25a1.125 1.125 0 01-1.12-1.243l1.264-12A1.125 1.125 0 015.513 7.5h12.974c.576 0 1.059.435 1.119 1.007zM8.625 10.5a.375.375 0 11-.75 0 .375.375 0 01.75 0zm7.5 0a.375.375 0 11-.75 0 .375.375 0 01.75 0z"
    />
  </symbol>

  <symbol
    id="arrows"
    fill="none"
    viewBox="0 0 24 24"
    stroke-width="1.5"
    stroke="currentColor"
  >
    <path
      stroke-linecap="round"
      stroke-linejoin="round"
      d="M16.023 9.348h4.992v-.001M2.985 19.644v-4.992m0 0h4.992m-4.993 0l3.181 3.183a8.25 8.25 0 0013.803-3.7M4.031 9.865a8.25 8.25 0 0113.803-3.7l3.181 3.182m0-4.991v4.99"
    />
  </symbol>
</svg>
